HIERARCHY
ROOT Hips
{
 OFFSET 0.000000 0.000000 0.000000
 CHANNELS 6 Xposition Yposition Zposition Yrotation Xrotation Zrotation
 JOINT Chest
 {
  OFFSET 0.000000 9.585900 0.002600
  CHANNELS 3 Yrotation Xrotation Zrotation
  JOINT Chest2
  {
   OFFSET 0.000000 9.601200 -0.005300
   CHANNELS 3 Yrotation Xrotation Zrotation
   JOINT Chest3
   {
    OFFSET 0.000000 9.561800 0.000000
    CHANNELS 3 Yrotation Xrotation Zrotation
    JOINT Chest4
    {
     OFFSET 0.000000 9.552100 0.000000
     CHANNELS 3 Yrotation Xrotation Zrotation
     JOINT Neck
     {
      OFFSET 0.000000 14.453000 0.000000
      CHANNELS 3 Yrotation Xrotation Zrotation
      JOINT Head
      {
       OFFSET 0.000000 8.936500 -0.011300
       CHANNELS 3 Yrotation Xrotation Zrotation
       End Site
       {
        OFFSET 0.000000 17.073600 -0.006000
       }
      }
     }
     JOINT RightCollar
     {
      OFFSET -2.921100 9.558500 0.000000
      CHANNELS 3 Yrotation Xrotation Zrotation
      JOINT RightShoulder
      {
       OFFSET -13.519700 0.000000 0.000000
       CHANNELS 3 Yrotation Xrotation Zrotation
       JOINT RightElbow
       {
        OFFSET 0.000000 -29.696600 0.000000
        CHANNELS 3 Yrotation Xrotation Zrotation
        JOINT RightWrist
        {
         OFFSET 0.000000 -24.004700 0.000000
         CHANNELS 3 Yrotation Xrotation Zrotation
         End Site
         {
          OFFSET 0.000000 -17.728500 0.000000
         }
        }
       }
      }
     }
     JOINT LeftCollar
     {
      OFFSET 2.921100 9.558500 0.000000
      CHANNELS 3 Yrotation Xrotation Zrotation
      JOINT LeftShoulder
      {
       OFFSET 13.519700 0.000000 0.000000
       CHANNELS 3 Yrotation Xrotation Zrotation
       JOINT LeftElbow
       {
        OFFSET 0.000000 -29.696600 0.000000
        CHANNELS 3 Yrotation Xrotation Zrotation
        JOINT LeftWrist
        {
         OFFSET 0.000000 -24.004700 0.000000
         CHANNELS 3 Yrotation Xrotation Zrotation
         End Site
         {
          OFFSET 0.000000 -17.728500 0.000000
         }
        }
       }
      }
     }
    }
   }
  }
 }
 JOINT RightHip
 {
  OFFSET -7.771700 -0.012900 -0.001300
  CHANNELS 3 Yrotation Xrotation Zrotation
  JOINT RightKnee
  {
   OFFSET 0.000000 -40.869800 0.001200
   CHANNELS 3 Yrotation Xrotation Zrotation
   JOINT RightAnkle
   {
    OFFSET 0.000000 -39.717900 0.002100
    CHANNELS 3 Yrotation Xrotation Zrotation
    JOINT RightToe
    {
     OFFSET 0.000000 -4.965400 11.033500
     CHANNELS 3 Yrotation Xrotation Zrotation
     End Site
     {
      OFFSET 0.000000 -1.423100 5.872300
     }
    }
   }
  }
 }
 JOINT LeftHip
 {
  OFFSET 7.771700 -0.012900 -0.001300
  CHANNELS 3 Yrotation Xrotation Zrotation
  JOINT LeftKnee
  {
   OFFSET 0.000000 -40.869800 0.001200
   CHANNELS 3 Yrotation Xrotation Zrotation
   JOINT LeftAnkle
   {
    OFFSET 0.000000 -39.717900 0.002100
    CHANNELS 3 Yrotation Xrotation Zrotation
    JOINT LeftToe
    {
     OFFSET 0.000000 -4.965400 11.033500
     CHANNELS 3 Yrotation Xrotation Zrotation
     End Site
     {
      OFFSET 0.000000 -1.423100 5.872300
     }
    }
   }
  }
 }
}
MOTION
Frames: 12
Frame Time: 0.008333
0.000000 85.388000 0.000000 0.000000 -5.767877 0.000000 0.000000 11.653817 0.000000 0.000000 -5.885947 0.000000 0.000000 -0.000000 0.000000 0.000000 -0.000000 0.000000 0.000000 12.528835 0.000000 0.000000 0.711642 0.000000 0.000000 -0.000000 0.000000 0.000000 0.000000 -90.000000 0.000000 -2.309062 0.000000 0.000000 2.309062 0.000000 0.000000 -0.000000 0.000000 0.000000 -0.000000 90.000000 0.000000 -2.309062 0.000000 0.000000 2.309062 0.000000 0.000000 8.520406 0.000000 0.000000 1.905762 0.000000 -0.000000 -4.658285 0.000000 0.000000 -0.000000 0.000000 0.000000 8.520406 0.000000 0.000000 1.905762 0.000000 -0.000000 -4.658285 0.000000 0.000000 -0.000000 0.000000
-11.163840 55.615096 20.025779 -176.425856 -30.703480 -9.219201 -2.307973 15.037796 5.566285 -1.127873 8.629811 2.312079 -1.361675 10.786105 2.872057 -1.127239 8.636538 2.311532 3.017329 19.999688 -2.144960 3.720285 -4.494429 -2.987216 6.675521 -3.128506 -4.655763 0.162214 -26.139403 -0.046232 50.095792 -34.807718 -32.439427 9.503657 6.713460 -16.262184 -11.796776 -2.474862 -4.450623 -9.217038 -23.005773 3.476077 -52.130483 -29.111042 46.479438 -1.430299 -0.688920 2.988824 -19.568661 -28.284385 5.872642 128.152550 87.738922 127.397520 3.171410 -28.339136 -4.798535 -0.080893 1.327628 -0.040152 -9.435814 -45.114088 8.980894 176.200051 73.433487 174.221671 -1.692637 -25.756902 1.786310 -0.118508 -1.269105 -0.047094
-11.166073 55.616276 20.026086 -176.422236 -30.712785 -9.220186 -2.311313 15.042834 5.564956 -1.132729 8.611437 2.312419 -1.365161 10.781869 2.871136 -1.124304 8.655547 2.309089 3.018086 19.977640 -2.144356 3.728272 -4.492687 -2.990881 6.678997 -3.087774 -4.668744 0.130516 -26.240315 -0.070153 49.994629 -34.833523 -32.223090 9.461071 6.711016 -16.403490 -11.797354 -2.498374 -4.439279 -9.205965 -22.982454 3.456270 -52.130132 -29.080493 46.470905 -1.436944 -0.698770 3.002550 -19.564529 -28.274564 5.868193 128.117662 87.741716 127.360463 3.175779 -28.336596 -4.800322 -0.081350 1.327677 -0.036281 -9.443594 -45.101634 8.980371 176.197195 73.435978 174.211674 -1.692848 -25.759858 1.784846 -0.117102 -1.267622 -0.046318
-11.203995 55.634218 19.990044 -176.613529 -30.998396 -8.922407 -2.164114 15.272862 5.347639 -1.132589 8.624149 2.311565 -1.372224 10.763342 2.870793 -1.126507 8.647881 2.309461 3.024030 19.978751 -2.145459 3.732360 -4.476562 -2.991721 6.686212 -3.036633 -4.675005 0.096181 -26.316433 -0.083754 49.900262 -34.862746 -32.021534 9.427235 6.704938 -16.544284 -11.791514 -2.474169 -4.447305 -9.212257 -22.999095 3.455593 -52.121177 -29.034050 46.454041 -1.422087 -0.717852 3.004683 -19.208555 -28.109931 5.538155 128.807842 87.696526 128.025996 3.155690 -28.385358 -4.778836 -0.071577 1.336518 -0.027405 -8.946880 -44.604176 8.581407 176.090085 73.619515 174.079006 -1.790182 -26.395062 1.812074 -0.051599 -0.727370 -0.019610
-11.208059 55.636284 19.988192 -176.601221 -31.015112 -8.924450 -2.180080 15.259810 5.339641 -1.132793 8.635587 2.313259 -1.380113 10.760978 2.866670 -1.139848 8.617996 2.309988 3.040648 19.979118 -2.146185 3.739442 -4.439110 -2.992011 6.700553 -2.923900 -4.689780 0.066338 -26.435701 -0.087699 49.806217 -34.890579 -31.839277 9.378167 6.694210 -16.651139 -11.773446 -2.429130 -4.460911 -9.235421 -23.034572 3.473902 -52.079460 -29.004870 46.404035 -1.420032 -0.724708 3.009437 -19.207174 -28.089997 5.530020 128.903612 87.705675 128.114224 3.158968 -28.386567 -4.780367 -0.075731 1.336138 -0.018664 -8.951480 -44.583607 8.571831 176.101389 73.621782 174.082896 -1.788557 -26.395218 1.813448 -0.050306 -0.728549 -0.017066
-11.212117 55.637118 19.987828 -176.598971 -31.016878 -8.924212 -2.187417 15.246791 5.334526 -1.141882 8.619566 2.309643 -1.374065 10.781654 2.868239 -1.141840 8.616304 2.309580 3.045058 19.975443 -2.145420 3.751207 -4.444334 -2.996004 6.696061 -2.856519 -4.703550 0.054089 -26.551570 -0.098747 49.733472 -34.898888 -31.705453 9.293518 6.670960 -16.697736 -11.786072 -2.440902 -4.449573 -9.222186 -23.029115 3.469766 -52.055071 -28.983847 46.375697 -1.409685 -0.737558 3.016237 -19.205757 -28.087438 5.529188 128.975691 87.712323 128.180752 3.160275 -28.385777 -4.775889 -0.075109 1.336083 -0.020153 -8.955747 -44.580335 8.568397 176.094968 73.622107 174.070374 -1.788149 -26.395021 1.816245 -0.049176 -0.730793 -0.018592
-11.216434 55.638298 19.986094 -176.595549 -31.021796 -8.926593 -2.193686 15.236219 5.332287 -1.141304 8.630988 2.310219 -1.378936 10.773904 2.867482 -1.143987 8.614052 2.309198 3.051402 19.985288 -2.145562 3.759267 -4.451970 -2.996594 6.690439 -2.814153 -4.707189 0.057694 -26.640704 -0.126636 49.599152 -34.951040 -31.494742 9.260471 6.664924 -16.761306 -11.795716 -2.435737 -4.445617 -9.205650 -23.027451 3.465684 -52.047148 -28.958241 46.356435 -1.401248 -0.756337 3.032665 -19.204729 -28.079878 5.528044 129.037891 87.719639 128.237742 3.161876 -28.385863 -4.770677 -0.076057 1.335267 -0.018974 -8.947514 -44.573787 8.556649 176.095228 73.622354 174.075211 -1.786709 -26.398261 1.819603 -0.046249 -0.731474 -0.019490
-11.220942 55.639727 19.983154 -176.583071 -31.027938 -8.935666 -2.203352 15.228605 5.333467 -1.150315 8.622564 2.308727 -1.389129 10.740254 2.865925 -1.144875 8.633810 2.306213 3.063082 20.004203 -2.143662 3.771789 -4.430057 -2.997412 6.696831 -2.765306 -4.704130 0.059675 -26.712558 -0.166372 49.464320 -35.010594 -31.281824 9.226299 6.664000 -16.804816 -11.806786 -2.403763 -4.445516 -9.192560 -23.043877 3.482836 -52.021971 -28.940106 46.310237 -1.397793 -0.767186 3.046221 -19.206965 -28.065912 5.521619 128.954549 87.724188 128.155021 3.166206 -28.391674 -4.768135 -0.081785 1.338814 -0.020867 -8.954553 -44.563993 8.550850 176.090450 73.620831 174.071333 -1.785574 -26.402179 1.820246 -0.047433 -0.733370 -0.019224
-11.225897 55.640394 19.980496 -176.565933 -31.026243 -8.946458 -2.214614 15.213667 5.335930 -1.157889 8.589819 2.308385 -1.396454 10.743846 2.866108 -1.155839 8.601653 2.306854 3.077310 20.043494 -2.132908 3.786799 -4.370999 -2.991279 6.703274 -2.682098 -4.699730 0.065317 -26.779709 -0.218494 49.343882 -35.068099 -31.086535 9.236022 6.679824 -16.844363 -11.824421 -2.333748 -4.457367 -9.200705 -23.093024 3.533370 -51.949401 -28.916579 46.216301 -1.403003 -0.785636 3.057099 -19.197607 -28.061457 5.508238 128.848616 87.723092 128.065544 3.167092 -28.396304 -4.763875 -0.080778 1.340165 -0.023827 -8.966550 -44.563541 8.546098 176.069011 73.617928 174.050690 -1.789236 -26.405122 1.822628 -0.047253 -0.733534 -0.019258
-11.231265 55.640927 19.977094 -176.549948 -31.025996 -8.955980 -2.223694 15.202829 5.338442 -1.162807 8.575489 2.309663 -1.401731 10.751840 2.865107 -1.156891 8.608817 2.305659 3.079295 20.044747 -2.130085 3.791559 -4.354467 -2.986184 6.691736 -2.669880 -4.694978 0.088640 -26.839002 -0.284651 49.209058 -35.136270 -30.882487 9.158582 6.677035 -16.833124 -11.839340 -2.324870 -4.455731 -9.216455 -23.127003 3.566580 -51.892067 -28.882814 46.144883 -1.391393 -0.809031 3.076653 -19.201229 -28.054423 5.499906 128.759607 87.722847 127.981517 3.164894 -28.403259 -4.765321 -0.080376 1.342036 -0.021441 -8.971490 -44.562399 8.537922 176.032137 73.613584 174.017422 -1.799248 -26.407180 1.827147 -0.044233 -0.735449 -0.019389
-11.236250 55.641445 19.972918 -176.537312 -31.028972 -8.967454 -2.229217 15.187175 5.344115 -1.167045 8.567314 2.312020 -1.406767 10.760847 2.863585 -1.164414 8.580391 2.309297 3.083438 20.081490 -2.131243 3.795533 -4.341578 -2.983232 6.693228 -2.631914 -4.690882 0.114267 -26.884278 -0.361763 49.078050 -35.192908 -30.700957 9.066528 6.661028 -16.777763 -11.852694 -2.282019 -4.467189 -9.203731 -23.136936 3.571382 -51.868684 -28.848336 46.102341 -1.388538 -0.832644 3.095369 -19.209366 -28.044257 5.497829 128.695436 87.719927 127.917102 3.161944 -28.404807 -4.768753 -0.078982 1.337861 -0.020327 -8.973175 -44.557433 8.535646 176.016011 73.608164 174.003193 -1.804196 -26.411095 1.832885 -0.043797 -0.737960 -0.018072
-11.241530 55.641445 19.968607 -176.530500 -31.031760 -8.974979 -2.230900 15.164375 5.348648 -1.171580 8.579286 2.313125 -1.410567 10.736206 2.868052 -1.169532 8.529736 2.326092 3.081288 20.147144 -2.142591 3.793991 -4.315932 -2.988070 6.673320 -2.579209 -4.690015 0.169903 -26.903535 -0.451873 48.927223 -35.252983 -30.503946 9.025237 6.652751 -16.727432 -11.886225 -2.212747 -4.503125 -9.197428 -23.226726 3.635331 -51.764021 -28.802408 45.931314 -1.393384 -0.836046 3.096701 -19.203446 -28.037540 5.492711 128.667665 87.722109 127.893800 3.159703 -28.407339 -4.765620 -0.079537 1.336254 -0.017805 -8.971316 -44.551927 8.530910 176.007063 73.603355 173.995479 -1.804148 -26.420156 1.838255 -0.044324 -0.736621 -0.018245
